<svg xmlns="http://www.w3.org/2000/svg" width="1085.55" height="263.318" viewBox="0 0 1085.55 263.318">
  <g>
    <g>
      <path d="M114.171,219.138,102.08,170.307c-4.185-16.743-7.906-33.717-11.394-50.924h-.465c-3.489,17.207-7.208,34.181-11.394,50.924L66.735,219.138h-37.9L0,101.013H26.508l10.7,47.436c3.953,17.207,7.674,35.112,10.7,52.319h.465c3.489-17.207,7.442-34.182,11.627-51.389l11.859-48.366h37.205l11.859,48.366c4.186,17.207,8.138,34.182,11.626,51.389h.465c3.023-17.207,6.743-35.112,10.7-52.319l10.7-47.436h26.509L152.073,219.138Z" fill="#131414"/>
      <path d="M306.473,160.075c0,38.367-22.324,62.551-58.132,62.551s-58.365-24.184-58.365-62.551,22.555-62.55,58.365-62.55S306.473,121.708,306.473,160.075Zm-88.594,0c0,25.578,11.627,41.623,30.462,41.623S278.8,185.653,278.8,160.075s-11.627-41.622-30.461-41.622S217.879,134.5,217.879,160.075Z" fill="#131414"/>
      <path d="M411.341,219.138V202.86h-.465c-6.976,12.092-20.23,19.068-35.112,19.068-30,0-49.3-24.183-49.3-61.853S345.535,97.99,375.531,97.99c14.65,0,27.9,6.743,34.648,18.37h.465V53.577h26.507V219.138Zm-57.2-59.063c0,25.113,11.394,41.391,29.3,41.391,17.207,0,28.6-15.813,28.6-41.391,0-25.81-11.393-41.389-28.6-41.389C365.533,118.686,354.139,134.962,354.139,160.075Z" fill="#131414"/>
      <path d="M524.58,224.253c-11.162,30-24.184,39.065-51.622,39.065A52.84,52.84,0,0,1,459.7,261.69V240.065a39.01,39.01,0,0,0,11.161,1.628c14.417,0,20.7-5.348,26.277-21.626L453.891,101.013H482.26l29.531,87.9h.465l30.461-87.9h27.438Z" fill="#131414"/>
      <path d="M690.836,146.821v72.317H664.327V149.146c0-21.16-9.068-29.531-23.95-29.531-15.114,0-26.974,11.395-26.974,33.949v65.574H586.9V101.013h25.113V116.36h.465a42.167,42.167,0,0,1,35.344-18.137C674.559,98.223,690.836,114.5,690.836,146.821Z" fill="#131414"/>
      <path d="M809.89,137.753H784.312c0-14.185-8.372-20.928-22.556-20.928-12.324,0-19.532,5.348-19.532,13.951,0,10.232,8.138,12.325,26.74,16.975,21.626,5.581,44.645,10.7,44.645,38.833,0,21.393-19.067,36.042-49.528,36.042-31.624,0-50.924-14.185-51.156-42.32H739.9c0,14.417,8.836,22.554,24.648,22.554,13.487,0,21.392-5.812,21.392-14.649,0-12.091-9.3-14.416-29.763-19.532-19.765-4.883-40.46-9.3-40.46-35.81,0-20.927,18.6-35.344,46.273-35.344C791.984,97.525,809.657,111.477,809.89,137.753Z" fill="#131414"/>
      <path d="M910.338,219.138l-46.04-57.2h-.466v57.2H837.324V53.577h26.508v95.8h.466l43.017-48.366h30.926L889.41,154.96l54.412,64.178Z" fill="#131414"/>
      <path d="M956.376,219.138V101.013h26.508V219.138Z" fill="#131414"/>
    </g>
    <path d="M1085.55,50.117c0,30.124-19.452,50.117-48.766,50.117s-48.766-19.993-48.766-50.117S1007.471,0,1036.784,0,1085.55,19.993,1085.55,50.117Zm-89.156,0c0,24.991,16.075,41.607,40.39,41.607s40.526-16.616,40.526-41.607S1061.1,8.511,1036.784,8.511,996.394,25.126,996.394,50.117Zm66.732-7.7h-15.4c-.405-6.349-4.188-10.4-10.671-10.4-7.43,0-12.024,6.889-12.024,18.237,0,11.076,4.594,17.966,11.888,17.966,6.35,0,10.4-4.188,11.077-10.807h15.535c-1.216,14.859-11.482,23.234-26.612,23.234-16.886,0-27.287-11.617-27.287-30.393,0-19.048,10.4-30.665,27.423-30.665C1052.589,19.588,1062.45,28.368,1063.126,42.417Z" fill="#131414"/>
  </g>
</svg>
